<?xml version="1.0" encoding="UTF-8"?>
<svg id="Square-X-Twitter--Streamline-Font-Awesome" xmlns="http://www.w3.org/2000/svg" version="1.1" viewBox="0 0 15.68 15.68">
  <!-- Generator: Adobe Illustrator 30.6.0, SVG Export Plug-In . SVG Version: 2.1.4 Build 109)  -->
  <defs>
    <style>
      .st0 {
        fill: #fff;
      }
    </style>
  </defs>
  <path class="st0" d="M2.24,0C1,0,0,1,0,2.24v11.2c0,1.24,1,2.24,2.24,2.24h11.2c1.24,0,2.24-1,2.24-2.24V2.24C15.68,1,14.68,0,13.44,0,13.44,0,2.24,0,2.24,0ZM12.64,2.94l-3.63,4.15,4.27,5.65h-3.35l-2.62-3.43-3,3.43h-1.66l3.88-4.44L2.44,2.94h3.43l2.37,3.13,2.74-3.13s1.66,0,1.66,0ZM11.32,11.75L5.37,3.88h-.99l6.01,7.86h.92Z"/>
</svg>